# xmcd
#
# Track frame offsets:
# 182
# 26815
# 51755
# 84997
# 105672
# 150112
# 194757
# 216412
#
# Disc length: 3117 seconds
#
#
# Revision: 3
# Processed by: cddbd v1.5PL3 Copyright (c) Steve Scherf et al.
# Submitted via: FreeRIP 2.60 
#
DISCID=650c2b08,660c2d08
DTITLE=Robben Ford and The Blue Line - The Authorized Bootleg
DYEAR=1998
DGENRE=Blues
TTITLE0=When I Leave Here
TTITLE1=Chevrolet
TTITLE2=Top Of The Hill
TTITLE3=Start It Up
TTITLE4=Don't Let The Sun Catch You Crying
TTITLE5=Help The Poor
TTITLE6=Lovin' Cup
TTITLE7=Tired Of Talkin'
EXTD=
EXTT0=
EXTT1=
EXTT2=
EXTT3=
EXTT4=
EXTT5=
EXTT6=
EXTT7=
PLAYORDER=
